<svg xmlns="http://www.w3.org/2000/svg" viewBox="0 0 13.29 18.8"><defs><style>.cls-1{fill:#231f20;}</style></defs><g id="Layer_2" data-name="Layer 2"><g id="Layer_1-2" data-name="Layer 1"><path class="cls-1" d="M8,18.8H5.26A5.26,5.26,0,0,1,0,13.55V9.16A5.27,5.27,0,0,1,5.26,3.9H8a5.26,5.26,0,0,1,5.25,5.26v4.39A5.26,5.26,0,0,1,8,18.8ZM5.26,4.9A4.26,4.26,0,0,0,1,9.16v4.39A4.25,4.25,0,0,0,5.26,17.8H8a4.25,4.25,0,0,0,4.25-4.25V9.16A4.26,4.26,0,0,0,8,4.9Z"/><path class="cls-1" d="M4,2.7l-.91-.4a3.86,3.86,0,0,1,7.06,0l-.92.4A2.86,2.86,0,0,0,4,2.7Z"/></g></g></svg>