<?xml version="1.0" encoding="utf-8"?>
<!-- Generator: Adobe Illustrator 26.0.3, SVG Export Plug-In . SVG Version: 6.00 Build 0)  -->
<svg version="1.1" id="Layer_1" xmlns="http://www.w3.org/2000/svg" xmlns:xlink="http://www.w3.org/1999/xlink" x="0px" y="0px"
	 viewBox="0 0 15.5 15.8" style="enable-background:new 0 0 15.5 15.8;" xml:space="preserve">
<style type="text/css">
	.st0{fill:#231F20;stroke:#231F20;stroke-width:0.25;stroke-miterlimit:10;}
</style>
<g id="Layer_2_00000013153093939665573960000007207816809530404285_">
	<g id="Layer_1-2">
		<path class="st0" d="M13.5,13.4l-3.4-3.3c2-2,2-5.2,0-7.2s-5.2-2-7.2,0s-2,5.2,0,7.2c1.9,1.9,4.9,2,6.9,0.3l3.4,3.4L13.5,13.4z
			 M2,6.6C2,4,4.1,2,6.6,2c2.5,0,4.6,2.1,4.6,4.6s-2.1,4.6-4.6,4.6c0,0,0,0,0,0C4.1,11.1,2,9.1,2,6.6z"/>
	</g>
</g>
</svg>
